# xmcd
#
# Track frame offsets:
#	150
#	24903
#	47787
#	70926
#	89821
#	112872
#	132786
#	160363
#	180833
#	211004
#	236486
#	270859
#	294143
#	328534
#
# Disc length: 4631
#
# Revision: 1
# Processed by: cddbd v1.5.1PL0 Copyright (c) Steve Scherf et al.
# Submitted via: CDex 1.50
# Normalized: r0:DSETVAR1,TDELIM( - ),TSWAP
#
DISCID=b012150e
DTITLE=Various Artist - Romantic Collection - Golden Jazz
DYEAR=2000
DGENRE=Jazz
TTITLE0=Joey De Francesco - Speak Softly Love
TTITLE1=Diane Schuur - Save Your Love For Me
TTITLE2=Earl Klugh - The Shadow Of Your Smile
TTITLE3=George Benson - Beyond The Sea
TTITLE4=Houston Person - Here's Thet Rainy Day
TTITLE5=Etta James - The Man I Love
TTITLE6=Ch. Haden Quartet - Our Spanish Love Song
TTITLE7=Freddy Cole - Isn't The Lovely
TTITLE8=Mark Whitfield - Nature Boy
TTITLE9=Toots Thielemans - Corcovado
TTITLE10=Abbey Lincoln - Love Has Gone Away
TTITLE11=Gary Foster - Last Tango In Paris
TTITLE12=Chet Baker - Round Midnight
TTITLE13=Sarah Vaughan - And I Love Him
EXTD=YEAR: 2000
EXTT0=
EXTT1=
EXTT2=
EXTT3=
EXTT4=
EXTT5=
EXTT6=
EXTT7=
EXTT8=
EXTT9=
EXTT10=
EXTT11=
EXTT12=
EXTT13=
PLAYORDER=
